<?xml version="1.0" encoding="utf-8"?>
<svg xmlns="http://www.w3.org/2000/svg" xmlns:xlink="http://www.w3.org/1999/xlink" style="margin: auto; background: rgb(241, 242, 243); display: block; shape-rendering: crispedges;" width="344px" height="344px" viewBox="0 0 100 100" preserveAspectRatio="xMidYMid">
<g transform="rotate(0 50 50)">
  <rect x="46.5" y="23" rx="1.19" ry="1.19" width="7" height="4" fill="#a403e1">
    <animate attributeName="opacity" values="1;0" keyTimes="0;1" dur="0.28328611898017s" begin="-0.26305139619587214s" repeatCount="indefinite"></animate>
  </rect>
</g><g transform="rotate(25.714285714285715 50 50)">
  <rect x="46.5" y="23" rx="1.19" ry="1.19" width="7" height="4" fill="#a403e1">
    <animate attributeName="opacity" values="1;0" keyTimes="0;1" dur="0.28328611898017s" begin="-0.24281667341157429s" repeatCount="indefinite"></animate>
  </rect>
</g><g transform="rotate(51.42857142857143 50 50)">
  <rect x="46.5" y="23" rx="1.19" ry="1.19" width="7" height="4" fill="#a403e1">
    <animate attributeName="opacity" values="1;0" keyTimes="0;1" dur="0.28328611898017s" begin="-0.22258195062727643s" repeatCount="indefinite"></animate>
  </rect>
</g><g transform="rotate(77.14285714285714 50 50)">
  <rect x="46.5" y="23" rx="1.19" ry="1.19" width="7" height="4" fill="#a403e1">
    <animate attributeName="opacity" values="1;0" keyTimes="0;1" dur="0.28328611898017s" begin="-0.20234722784297857s" repeatCount="indefinite"></animate>
  </rect>
</g><g transform="rotate(102.85714285714286 50 50)">
  <rect x="46.5" y="23" rx="1.19" ry="1.19" width="7" height="4" fill="#a403e1">
    <animate attributeName="opacity" values="1;0" keyTimes="0;1" dur="0.28328611898017s" begin="-0.1821125050586807s" repeatCount="indefinite"></animate>
  </rect>
</g><g transform="rotate(128.57142857142858 50 50)">
  <rect x="46.5" y="23" rx="1.19" ry="1.19" width="7" height="4" fill="#a403e1">
    <animate attributeName="opacity" values="1;0" keyTimes="0;1" dur="0.28328611898017s" begin="-0.16187778227438285s" repeatCount="indefinite"></animate>
  </rect>
</g><g transform="rotate(154.28571428571428 50 50)">
  <rect x="46.5" y="23" rx="1.19" ry="1.19" width="7" height="4" fill="#a403e1">
    <animate attributeName="opacity" values="1;0" keyTimes="0;1" dur="0.28328611898017s" begin="-0.141643059490085s" repeatCount="indefinite"></animate>
  </rect>
</g><g transform="rotate(180 50 50)">
  <rect x="46.5" y="23" rx="1.19" ry="1.19" width="7" height="4" fill="#a403e1">
    <animate attributeName="opacity" values="1;0" keyTimes="0;1" dur="0.28328611898017s" begin="-0.12140833670578714s" repeatCount="indefinite"></animate>
  </rect>
</g><g transform="rotate(205.71428571428572 50 50)">
  <rect x="46.5" y="23" rx="1.19" ry="1.19" width="7" height="4" fill="#a403e1">
    <animate attributeName="opacity" values="1;0" keyTimes="0;1" dur="0.28328611898017s" begin="-0.10117361392148928s" repeatCount="indefinite"></animate>
  </rect>
</g><g transform="rotate(231.42857142857142 50 50)">
  <rect x="46.5" y="23" rx="1.19" ry="1.19" width="7" height="4" fill="#a403e1">
    <animate attributeName="opacity" values="1;0" keyTimes="0;1" dur="0.28328611898017s" begin="-0.08093889113719142s" repeatCount="indefinite"></animate>
  </rect>
</g><g transform="rotate(257.14285714285717 50 50)">
  <rect x="46.5" y="23" rx="1.19" ry="1.19" width="7" height="4" fill="#a403e1">
    <animate attributeName="opacity" values="1;0" keyTimes="0;1" dur="0.28328611898017s" begin="-0.06070416835289357s" repeatCount="indefinite"></animate>
  </rect>
</g><g transform="rotate(282.85714285714283 50 50)">
  <rect x="46.5" y="23" rx="1.19" ry="1.19" width="7" height="4" fill="#a403e1">
    <animate attributeName="opacity" values="1;0" keyTimes="0;1" dur="0.28328611898017s" begin="-0.04046944556859571s" repeatCount="indefinite"></animate>
  </rect>
</g><g transform="rotate(308.57142857142856 50 50)">
  <rect x="46.5" y="23" rx="1.19" ry="1.19" width="7" height="4" fill="#a403e1">
    <animate attributeName="opacity" values="1;0" keyTimes="0;1" dur="0.28328611898017s" begin="-0.020234722784297856s" repeatCount="indefinite"></animate>
  </rect>
</g><g transform="rotate(334.2857142857143 50 50)">
  <rect x="46.5" y="23" rx="1.19" ry="1.19" width="7" height="4" fill="#a403e1">
    <animate attributeName="opacity" values="1;0" keyTimes="0;1" dur="0.28328611898017s" begin="0s" repeatCount="indefinite"></animate>
  </rect>
</g>
<!-- [ldio] generated by https://loading.io/ --></svg>